<mxfile host="Electron" modified="2024-05-05T13:40:12.790Z" agent="Mozilla/5.0 (X11; Linux x86_64) AppleWebKit/537.36 (KHTML, like Gecko) draw.io/24.2.5 Chrome/120.0.6099.291 Electron/28.3.1 Safari/537.36" etag="lppfsWWWqNhTOiI-xjSi" version="24.2.5" type="device">
  <diagram name="Page-1" id="Oj0Cb0LDurnYrLCicOmc">
    <mxGraphModel dx="1195" dy="698" grid="1" gridSize="10" guides="1" tooltips="1" connect="1" arrows="1" fold="1" page="1" pageScale="1" pageWidth="827" pageHeight="1169" math="0" shadow="0">
      <root>
        <mxCell id="0" />
        <mxCell id="1" parent="0" />
        <mxCell id="folbi2Q1KUGsfI5xSJ4e-9" style="edgeStyle=orthogonalEdgeStyle;rounded=0;orthogonalLoop=1;jettySize=auto;html=1;exitX=1;exitY=0.5;exitDx=0;exitDy=0;" parent="1" source="folbi2Q1KUGsfI5xSJ4e-1" target="folbi2Q1KUGsfI5xSJ4e-4" edge="1">
          <mxGeometry relative="1" as="geometry" />
        </mxCell>
        <mxCell id="folbi2Q1KUGsfI5xSJ4e-1" value="&lt;font style=&quot;font-size: 15px;&quot;&gt;Quad vertices&lt;/font&gt;" style="rounded=0;whiteSpace=wrap;html=1;fillColor=#dae8fc;strokeColor=#6c8ebf;" parent="1" vertex="1">
          <mxGeometry x="120" y="80" width="120" height="60" as="geometry" />
        </mxCell>
        <mxCell id="folbi2Q1KUGsfI5xSJ4e-18" style="edgeStyle=orthogonalEdgeStyle;rounded=0;orthogonalLoop=1;jettySize=auto;html=1;exitX=0.5;exitY=0;exitDx=0;exitDy=0;entryX=0.5;entryY=1;entryDx=0;entryDy=0;" parent="1" source="folbi2Q1KUGsfI5xSJ4e-2" target="folbi2Q1KUGsfI5xSJ4e-5" edge="1">
          <mxGeometry relative="1" as="geometry" />
        </mxCell>
        <mxCell id="folbi2Q1KUGsfI5xSJ4e-2" value="&lt;font style=&quot;font-size: 15px;&quot;&gt;Slide texture&lt;/font&gt;" style="rounded=0;whiteSpace=wrap;html=1;fillColor=#ffe6cc;strokeColor=#d79b00;" parent="1" vertex="1">
          <mxGeometry x="430" y="165" width="120" height="60" as="geometry" />
        </mxCell>
        <mxCell id="folbi2Q1KUGsfI5xSJ4e-16" value="" style="edgeStyle=orthogonalEdgeStyle;rounded=0;orthogonalLoop=1;jettySize=auto;html=1;" parent="1" source="folbi2Q1KUGsfI5xSJ4e-4" target="folbi2Q1KUGsfI5xSJ4e-5" edge="1">
          <mxGeometry relative="1" as="geometry" />
        </mxCell>
        <mxCell id="folbi2Q1KUGsfI5xSJ4e-4" value="&lt;font style=&quot;font-size: 15px;&quot;&gt;Vertex shader&lt;/font&gt;" style="rounded=0;whiteSpace=wrap;html=1;fillColor=#d5e8d4;strokeColor=#82b366;" parent="1" vertex="1">
          <mxGeometry x="270" y="80" width="120" height="60" as="geometry" />
        </mxCell>
        <mxCell id="folbi2Q1KUGsfI5xSJ4e-17" style="edgeStyle=orthogonalEdgeStyle;rounded=0;orthogonalLoop=1;jettySize=auto;html=1;exitX=1;exitY=0.5;exitDx=0;exitDy=0;" parent="1" source="folbi2Q1KUGsfI5xSJ4e-5" target="folbi2Q1KUGsfI5xSJ4e-6" edge="1">
          <mxGeometry relative="1" as="geometry" />
        </mxCell>
        <mxCell id="folbi2Q1KUGsfI5xSJ4e-5" value="&lt;font style=&quot;font-size: 15px;&quot;&gt;Fragment shader&lt;/font&gt;" style="rounded=0;whiteSpace=wrap;html=1;fillColor=#d5e8d4;strokeColor=#82b366;" parent="1" vertex="1">
          <mxGeometry x="430" y="80" width="120" height="60" as="geometry" />
        </mxCell>
        <mxCell id="folbi2Q1KUGsfI5xSJ4e-6" value="&lt;font style=&quot;font-size: 15px;&quot;&gt;Screen target&lt;/font&gt;" style="rounded=0;whiteSpace=wrap;html=1;fillColor=#e1d5e7;strokeColor=#9673a6;" parent="1" vertex="1">
          <mxGeometry x="570" y="165" width="120" height="60" as="geometry" />
        </mxCell>
        <mxCell id="folbi2Q1KUGsfI5xSJ4e-11" value="&lt;font style=&quot;font-size: 16px;&quot;&gt;Intro&lt;/font&gt;&lt;div style=&quot;font-size: 16px;&quot;&gt;&lt;font style=&quot;font-size: 16px;&quot;&gt;Pipeline&lt;/font&gt;&lt;/div&gt;" style="text;html=1;align=center;verticalAlign=middle;whiteSpace=wrap;rounded=0;fontStyle=1;rotation=-90;" parent="1" vertex="1">
          <mxGeometry x="35" y="87.5" width="80" height="45" as="geometry" />
        </mxCell>
        <mxCell id="folbi2Q1KUGsfI5xSJ4e-19" value="" style="edgeStyle=orthogonalEdgeStyle;rounded=0;orthogonalLoop=1;jettySize=auto;html=1;" parent="1" source="folbi2Q1KUGsfI5xSJ4e-12" target="folbi2Q1KUGsfI5xSJ4e-13" edge="1">
          <mxGeometry relative="1" as="geometry" />
        </mxCell>
        <mxCell id="folbi2Q1KUGsfI5xSJ4e-12" value="&lt;font style=&quot;font-size: 15px;&quot;&gt;Bar vertices&lt;/font&gt;" style="rounded=0;whiteSpace=wrap;html=1;fillColor=#dae8fc;strokeColor=#6c8ebf;" parent="1" vertex="1">
          <mxGeometry x="120" y="320" width="120" height="60" as="geometry" />
        </mxCell>
        <mxCell id="folbi2Q1KUGsfI5xSJ4e-20" value="" style="edgeStyle=orthogonalEdgeStyle;rounded=0;orthogonalLoop=1;jettySize=auto;html=1;" parent="1" source="folbi2Q1KUGsfI5xSJ4e-13" target="folbi2Q1KUGsfI5xSJ4e-14" edge="1">
          <mxGeometry relative="1" as="geometry" />
        </mxCell>
        <mxCell id="folbi2Q1KUGsfI5xSJ4e-13" value="&lt;font style=&quot;font-size: 15px;&quot;&gt;Vertex shader&lt;/font&gt;" style="rounded=0;whiteSpace=wrap;html=1;fillColor=#d5e8d4;strokeColor=#82b366;" parent="1" vertex="1">
          <mxGeometry x="270" y="320" width="120" height="60" as="geometry" />
        </mxCell>
        <mxCell id="folbi2Q1KUGsfI5xSJ4e-30" style="edgeStyle=orthogonalEdgeStyle;rounded=0;orthogonalLoop=1;jettySize=auto;html=1;exitX=1;exitY=0.5;exitDx=0;exitDy=0;entryX=0.5;entryY=0;entryDx=0;entryDy=0;" parent="1" source="folbi2Q1KUGsfI5xSJ4e-14" target="folbi2Q1KUGsfI5xSJ4e-29" edge="1">
          <mxGeometry relative="1" as="geometry" />
        </mxCell>
        <mxCell id="folbi2Q1KUGsfI5xSJ4e-14" value="&lt;font style=&quot;font-size: 15px;&quot;&gt;Fragment shader&lt;/font&gt;" style="rounded=0;whiteSpace=wrap;html=1;fillColor=#d5e8d4;strokeColor=#82b366;" parent="1" vertex="1">
          <mxGeometry x="420" y="320" width="120" height="60" as="geometry" />
        </mxCell>
        <mxCell id="folbi2Q1KUGsfI5xSJ4e-27" value="" style="edgeStyle=orthogonalEdgeStyle;rounded=0;orthogonalLoop=1;jettySize=auto;html=1;" parent="1" source="folbi2Q1KUGsfI5xSJ4e-22" target="folbi2Q1KUGsfI5xSJ4e-23" edge="1">
          <mxGeometry relative="1" as="geometry" />
        </mxCell>
        <mxCell id="folbi2Q1KUGsfI5xSJ4e-22" value="&lt;font style=&quot;font-size: 15px;&quot;&gt;Skybox vertices&lt;/font&gt;" style="rounded=0;whiteSpace=wrap;html=1;fillColor=#dae8fc;strokeColor=#6c8ebf;" parent="1" vertex="1">
          <mxGeometry x="120" y="444.5" width="120" height="60" as="geometry" />
        </mxCell>
        <mxCell id="folbi2Q1KUGsfI5xSJ4e-28" value="" style="edgeStyle=orthogonalEdgeStyle;rounded=0;orthogonalLoop=1;jettySize=auto;html=1;" parent="1" source="folbi2Q1KUGsfI5xSJ4e-23" target="folbi2Q1KUGsfI5xSJ4e-24" edge="1">
          <mxGeometry relative="1" as="geometry" />
        </mxCell>
        <mxCell id="folbi2Q1KUGsfI5xSJ4e-23" value="&lt;font style=&quot;font-size: 15px;&quot;&gt;Vertex shader&lt;/font&gt;" style="rounded=0;whiteSpace=wrap;html=1;fillColor=#d5e8d4;strokeColor=#82b366;" parent="1" vertex="1">
          <mxGeometry x="270" y="444.5" width="120" height="60" as="geometry" />
        </mxCell>
        <mxCell id="folbi2Q1KUGsfI5xSJ4e-31" style="edgeStyle=orthogonalEdgeStyle;rounded=0;orthogonalLoop=1;jettySize=auto;html=1;exitX=1;exitY=0.5;exitDx=0;exitDy=0;entryX=0.5;entryY=1;entryDx=0;entryDy=0;" parent="1" source="folbi2Q1KUGsfI5xSJ4e-24" target="folbi2Q1KUGsfI5xSJ4e-29" edge="1">
          <mxGeometry relative="1" as="geometry" />
        </mxCell>
        <mxCell id="folbi2Q1KUGsfI5xSJ4e-24" value="&lt;font style=&quot;font-size: 15px;&quot;&gt;Fragment shader&lt;/font&gt;" style="rounded=0;whiteSpace=wrap;html=1;fillColor=#d5e8d4;strokeColor=#82b366;" parent="1" vertex="1">
          <mxGeometry x="420" y="444.5" width="120" height="60" as="geometry" />
        </mxCell>
        <mxCell id="folbi2Q1KUGsfI5xSJ4e-26" value="" style="edgeStyle=orthogonalEdgeStyle;rounded=0;orthogonalLoop=1;jettySize=auto;html=1;" parent="1" source="folbi2Q1KUGsfI5xSJ4e-25" target="folbi2Q1KUGsfI5xSJ4e-24" edge="1">
          <mxGeometry relative="1" as="geometry" />
        </mxCell>
        <mxCell id="folbi2Q1KUGsfI5xSJ4e-25" value="&lt;font style=&quot;font-size: 15px;&quot;&gt;Space cubemap texture&lt;/font&gt;" style="rounded=0;whiteSpace=wrap;html=1;fillColor=#ffe6cc;strokeColor=#d79b00;" parent="1" vertex="1">
          <mxGeometry x="420" y="524.5" width="120" height="60" as="geometry" />
        </mxCell>
        <mxCell id="folbi2Q1KUGsfI5xSJ4e-35" style="edgeStyle=orthogonalEdgeStyle;rounded=0;orthogonalLoop=1;jettySize=auto;html=1;exitX=1;exitY=0.5;exitDx=0;exitDy=0;entryX=1;entryY=0.5;entryDx=0;entryDy=0;" parent="1" source="folbi2Q1KUGsfI5xSJ4e-29" target="folbi2Q1KUGsfI5xSJ4e-34" edge="1">
          <mxGeometry relative="1" as="geometry" />
        </mxCell>
        <mxCell id="folbi2Q1KUGsfI5xSJ4e-29" value="&lt;font style=&quot;font-size: 15px;&quot;&gt;Framebuffer target&lt;/font&gt;" style="rounded=0;whiteSpace=wrap;html=1;fillColor=#e1d5e7;strokeColor=#9673a6;" parent="1" vertex="1">
          <mxGeometry x="570" y="354.5" width="120" height="60" as="geometry" />
        </mxCell>
        <mxCell id="folbi2Q1KUGsfI5xSJ4e-36" value="" style="edgeStyle=orthogonalEdgeStyle;rounded=0;orthogonalLoop=1;jettySize=auto;html=1;" parent="1" source="folbi2Q1KUGsfI5xSJ4e-32" target="folbi2Q1KUGsfI5xSJ4e-33" edge="1">
          <mxGeometry relative="1" as="geometry" />
        </mxCell>
        <mxCell id="folbi2Q1KUGsfI5xSJ4e-32" value="&lt;font style=&quot;font-size: 15px;&quot;&gt;Quad vertices&lt;/font&gt;" style="rounded=0;whiteSpace=wrap;html=1;fillColor=#dae8fc;strokeColor=#6c8ebf;" parent="1" vertex="1">
          <mxGeometry x="120" y="630" width="120" height="60" as="geometry" />
        </mxCell>
        <mxCell id="folbi2Q1KUGsfI5xSJ4e-37" value="" style="edgeStyle=orthogonalEdgeStyle;rounded=0;orthogonalLoop=1;jettySize=auto;html=1;" parent="1" source="folbi2Q1KUGsfI5xSJ4e-33" target="folbi2Q1KUGsfI5xSJ4e-34" edge="1">
          <mxGeometry relative="1" as="geometry" />
        </mxCell>
        <mxCell id="folbi2Q1KUGsfI5xSJ4e-33" value="&lt;font style=&quot;font-size: 15px;&quot;&gt;Vertex shader&lt;/font&gt;" style="rounded=0;whiteSpace=wrap;html=1;fillColor=#d5e8d4;strokeColor=#82b366;" parent="1" vertex="1">
          <mxGeometry x="270" y="630" width="120" height="60" as="geometry" />
        </mxCell>
        <mxCell id="folbi2Q1KUGsfI5xSJ4e-39" value="" style="edgeStyle=orthogonalEdgeStyle;rounded=0;orthogonalLoop=1;jettySize=auto;html=1;" parent="1" source="folbi2Q1KUGsfI5xSJ4e-34" target="folbi2Q1KUGsfI5xSJ4e-38" edge="1">
          <mxGeometry relative="1" as="geometry" />
        </mxCell>
        <mxCell id="folbi2Q1KUGsfI5xSJ4e-34" value="&lt;span style=&quot;font-size: 15px;&quot;&gt;Fragment shader&lt;/span&gt;" style="rounded=0;whiteSpace=wrap;html=1;fillColor=#d5e8d4;strokeColor=#82b366;" parent="1" vertex="1">
          <mxGeometry x="420" y="630" width="120" height="60" as="geometry" />
        </mxCell>
        <mxCell id="folbi2Q1KUGsfI5xSJ4e-38" value="&lt;font style=&quot;font-size: 15px;&quot;&gt;Screen target&lt;/font&gt;" style="rounded=0;whiteSpace=wrap;html=1;fillColor=#e1d5e7;strokeColor=#9673a6;" parent="1" vertex="1">
          <mxGeometry x="420" y="720" width="120" height="60" as="geometry" />
        </mxCell>
        <mxCell id="folbi2Q1KUGsfI5xSJ4e-40" value="&lt;span style=&quot;font-size: 16px;&quot;&gt;Main Pipeline&lt;/span&gt;" style="text;html=1;align=center;verticalAlign=middle;whiteSpace=wrap;rounded=0;fontStyle=1;rotation=-90;" parent="1" vertex="1">
          <mxGeometry x="30" y="480" width="90" height="45" as="geometry" />
        </mxCell>
        <mxCell id="folbi2Q1KUGsfI5xSJ4e-44" style="edgeStyle=orthogonalEdgeStyle;rounded=0;orthogonalLoop=1;jettySize=auto;html=1;exitX=0.07;exitY=0.4;exitDx=0;exitDy=0;exitPerimeter=0;entryX=1;entryY=0.75;entryDx=0;entryDy=0;" parent="1" source="folbi2Q1KUGsfI5xSJ4e-43" target="folbi2Q1KUGsfI5xSJ4e-34" edge="1">
          <mxGeometry relative="1" as="geometry">
            <mxPoint x="608.4000000000001" y="652" as="sourcePoint" />
          </mxGeometry>
        </mxCell>
        <mxCell id="folbi2Q1KUGsfI5xSJ4e-43" value="&lt;font style=&quot;font-size: 14px;&quot;&gt;Spectral energy&lt;/font&gt;&lt;div style=&quot;font-size: 14px;&quot;&gt;&lt;font style=&quot;font-size: 14px;&quot;&gt;ratio&lt;/font&gt;&lt;/div&gt;" style="ellipse;shape=cloud;whiteSpace=wrap;html=1;fillColor=#f8cecc;strokeColor=#b85450;" parent="1" vertex="1">
          <mxGeometry x="580" y="660" width="120" height="80" as="geometry" />
        </mxCell>
        <mxCell id="ULToP7AfGgbF_O0sn1-H-1" value="&lt;font face=&quot;Courier New&quot;&gt;quad.vert.glsl&lt;/font&gt;" style="text;html=1;align=left;verticalAlign=middle;whiteSpace=wrap;rounded=0;" vertex="1" parent="1">
          <mxGeometry x="270" y="50" width="120" height="30" as="geometry" />
        </mxCell>
        <mxCell id="ULToP7AfGgbF_O0sn1-H-3" value="&lt;font face=&quot;Courier New&quot;&gt;quad.frag.glsl&lt;/font&gt;" style="text;html=1;align=left;verticalAlign=middle;whiteSpace=wrap;rounded=0;" vertex="1" parent="1">
          <mxGeometry x="430" y="50" width="120" height="30" as="geometry" />
        </mxCell>
        <mxCell id="ULToP7AfGgbF_O0sn1-H-4" value="&lt;font face=&quot;Courier New&quot;&gt;quad.vert.glsl&lt;/font&gt;" style="text;html=1;align=left;verticalAlign=middle;whiteSpace=wrap;rounded=0;" vertex="1" parent="1">
          <mxGeometry x="270" y="290" width="120" height="30" as="geometry" />
        </mxCell>
        <mxCell id="ULToP7AfGgbF_O0sn1-H-5" value="&lt;font face=&quot;Courier New&quot;&gt;post.frag.glsl&lt;/font&gt;" style="text;html=1;align=left;verticalAlign=middle;whiteSpace=wrap;rounded=0;" vertex="1" parent="1">
          <mxGeometry x="420" y="290" width="120" height="30" as="geometry" />
        </mxCell>
        <mxCell id="ULToP7AfGgbF_O0sn1-H-6" value="&lt;font face=&quot;Courier New&quot;&gt;cubemap.vert.glsl&lt;/font&gt;" style="text;html=1;align=left;verticalAlign=middle;whiteSpace=wrap;rounded=0;" vertex="1" parent="1">
          <mxGeometry x="270" y="414.5" width="120" height="30" as="geometry" />
        </mxCell>
        <mxCell id="ULToP7AfGgbF_O0sn1-H-7" value="&lt;font face=&quot;Courier New&quot;&gt;quad.vert.glsl&lt;/font&gt;" style="text;html=1;align=left;verticalAlign=middle;whiteSpace=wrap;rounded=0;" vertex="1" parent="1">
          <mxGeometry x="270" y="600" width="120" height="30" as="geometry" />
        </mxCell>
        <mxCell id="ULToP7AfGgbF_O0sn1-H-8" value="&lt;font face=&quot;Courier New&quot;&gt;post.frag.glsl&lt;/font&gt;" style="text;html=1;align=left;verticalAlign=middle;whiteSpace=wrap;rounded=0;" vertex="1" parent="1">
          <mxGeometry x="420" y="600" width="120" height="30" as="geometry" />
        </mxCell>
        <mxCell id="ULToP7AfGgbF_O0sn1-H-10" value="&lt;font face=&quot;Courier New&quot;&gt;cubemap.frag.glsl&lt;/font&gt;" style="text;html=1;align=left;verticalAlign=middle;whiteSpace=wrap;rounded=0;" vertex="1" parent="1">
          <mxGeometry x="420" y="414.5" width="120" height="30" as="geometry" />
        </mxCell>
        <mxCell id="ULToP7AfGgbF_O0sn1-H-11" value="&lt;font style=&quot;font-size: 14px;&quot;&gt;VAO/VBO/&lt;br&gt;EBO&lt;/font&gt;" style="rounded=0;whiteSpace=wrap;html=1;fillColor=#dae8fc;strokeColor=#6c8ebf;" vertex="1" parent="1">
          <mxGeometry x="730" y="190" width="80" height="40" as="geometry" />
        </mxCell>
        <mxCell id="ULToP7AfGgbF_O0sn1-H-12" value="&lt;font style=&quot;font-size: 14px;&quot;&gt;Shader&lt;/font&gt;" style="rounded=0;whiteSpace=wrap;html=1;fillColor=#d5e8d4;strokeColor=#82b366;" vertex="1" parent="1">
          <mxGeometry x="730" y="230" width="80" height="40" as="geometry" />
        </mxCell>
        <mxCell id="ULToP7AfGgbF_O0sn1-H-13" value="&lt;span style=&quot;font-size: 16px;&quot;&gt;Legend&lt;/span&gt;" style="text;html=1;align=center;verticalAlign=middle;whiteSpace=wrap;rounded=0;fontStyle=1;rotation=-90;" vertex="1" parent="1">
          <mxGeometry x="670" y="245" width="80" height="45" as="geometry" />
        </mxCell>
        <mxCell id="ULToP7AfGgbF_O0sn1-H-14" value="&lt;font style=&quot;font-size: 14px;&quot;&gt;Texture&lt;/font&gt;" style="rounded=0;whiteSpace=wrap;html=1;fillColor=#ffe6cc;strokeColor=#d79b00;" vertex="1" parent="1">
          <mxGeometry x="730" y="270" width="80" height="40" as="geometry" />
        </mxCell>
        <mxCell id="ULToP7AfGgbF_O0sn1-H-15" value="&lt;font style=&quot;font-size: 14px;&quot;&gt;Render target&lt;/font&gt;" style="rounded=0;whiteSpace=wrap;html=1;fillColor=#e1d5e7;strokeColor=#9673a6;" vertex="1" parent="1">
          <mxGeometry x="730" y="305" width="80" height="40" as="geometry" />
        </mxCell>
      </root>
    </mxGraphModel>
  </diagram>
</mxfile>
